# xmcd
#
# Track frame offsets:
#	150
#	12835
#	23587
#	31873
#	40601
#	53787
#	66624
#	78428
#	97609
#	108928
#	120339
#	130853
#	146831
#	158156
#	168877
#	180735
#	192398
#	203614
#	213964
#	223776
#	232965
#	246085
#	261388
#	271861
#	283305
#	293856
#	303421
#	322387
#
# Disc length: 4478 seconds
#
# Revision: 0
# Processed by: cddbd v1.5.2PL0 Copyright (c) Steve Scherf et al.
# Submitted via: EZCDAudioConverter 2.1.7.1
#
DISCID=92117c1c
DTITLE=V/A - The Hangman's Blues
DYEAR=1900
DGENRE=
TTITLE0=Freddie Hart - The Wall
TTITLE1=Jim Carter - Jailer Jailer
TTITLE2=Lonesome Johnny - Death Row
TTITLE3=Jaycee Hill - Crash Out
TTITLE4=Bill Carter with The Cooper Brothers - Jailer Man
TTITLE5=Country Johnny Mathis - Caryl Chessman
TTITLE6=Ronnie Hawkins - The Ballad Of Caryl Chessman
TTITLE7=Marty Robbins - The Chair
TTITLE8=Stonewall Jackson - Run
TTITLE9=Jimmy Minor - Death Row
TTITLE10=Al Dean - Hangman
TTITLE11=Bobby Sykes - The Guard On The North Wall
TTITLE12=Hoyle Miller - Twelve Years On Death Row
TTITLE13=Porter Wagoner - (I Heard That) Lonesome Whistle
TTITLE14=Tommy Faile - Ball And Chain
TTITLE15=George Kent - I Always Did Like Leavenworth
TTITLE16=Bill Anderson - Ninety-Nine
TTITLE17=Eddie Noack - Invisible Stripes
TTITLE18=Dee Mullins - Sixteen Hundred Miles
TTITLE19=Steve Davis - Life-Timer
TTITLE20=Leon Payne - A Prisoner's Diary
TTITLE21=Johnny Bond - At Dawn I Die
TTITLE22=Pee Wee King and Redd Stewart - 24 Months
TTITLE23=Danny Dill - The Eyes Of Death
TTITLE24=Tommy Dee - The Chair
TTITLE25=Howard Crockett - I Got Stripes
TTITLE26=Johnny Paycheck - 21 Miles To Lake Charles Prison
TTITLE27=Charles Lee Guy III - The Prisoner's Dream
EXTD=
EXTT0=
EXTT1=
EXTT2=
EXTT3=
EXTT4=
EXTT5=
EXTT6=
EXTT7=
EXTT8=
EXTT9=
EXTT10=
EXTT11=
EXTT12=
EXTT13=
EXTT14=
EXTT15=
EXTT16=
EXTT17=
EXTT18=
EXTT19=
EXTT20=
EXTT21=
EXTT22=
EXTT23=
EXTT24=
EXTT25=
EXTT26=
EXTT27=
PLAYORDER=
